<svg width="33" height="14" viewBox="0 0 33 14" fill="none" xmlns="http://www.w3.org/2000/svg">
<path fill-rule="evenodd" clip-rule="evenodd" d="M-0.000151976 6.99145C-0.000151953 6.72628 0.105183 6.47197 0.292687 6.28447C0.480191 6.09697 0.734498 5.99163 0.999667 5.99163L28.9564 5.99163L24.6632 1.70041C24.5702 1.60745 24.4965 1.49709 24.4462 1.37563C24.3959 1.25418 24.37 1.124 24.37 0.992536C24.37 0.861072 24.3959 0.730895 24.4462 0.609438C24.4965 0.487981 24.5702 0.377623 24.6632 0.284663C24.7561 0.191705 24.8665 0.117965 24.988 0.0676559C25.1094 0.0173467 25.2396 -0.00854555 25.3711 -0.00854553C25.5025 -0.00854552 25.6327 0.0173467 25.7542 0.0676559C25.8756 0.117965 25.986 0.191705 26.0789 0.284664L32.0778 6.28358C32.171 6.37646 32.2448 6.48679 32.2952 6.60826C32.3456 6.72973 32.3716 6.85994 32.3716 6.99145C32.3716 7.12297 32.3456 7.25318 32.2952 7.37465C32.2448 7.49612 32.171 7.60645 32.0778 7.69933L26.0789 13.6982C25.8912 13.886 25.6366 13.9915 25.3711 13.9915C25.1056 13.9915 24.8509 13.886 24.6632 13.6982C24.4754 13.5105 24.37 13.2559 24.37 12.9904C24.37 12.7249 24.4754 12.4702 24.6632 12.2825L28.9564 7.99127L0.999667 7.99127C0.734498 7.99127 0.480191 7.88593 0.292687 7.69843C0.105183 7.51093 -0.000151999 7.25662 -0.000151976 6.99145Z" fill="white"/>
</svg>
