<svg width="20" height="20" viewBox="0 0 20 20" fill="none" xmlns="http://www.w3.org/2000/svg">
<g clip-path="url(#clip0_32_88)">
<path d="M6.69248 6.3902L9.42248 0.981455C9.47491 0.872647 9.55684 0.780747 9.65894 0.716217C9.76104 0.651687 9.8792 0.617122 9.99998 0.616455C10.2287 0.616455 10.4575 0.737705 10.5812 0.981455L13.3112 6.3902L19.4337 7.26021C19.5863 7.2842 19.726 7.36009 19.8292 7.47509C19.9323 7.59009 19.9927 7.73714 20 7.89146C20.0087 7.99419 19.9941 8.09756 19.9573 8.19388C19.9205 8.29019 19.8625 8.37696 19.7875 8.4477L15.3837 12.6427L16.4212 18.5552C16.5187 19.109 15.9712 19.5427 15.4887 19.2952L9.99998 16.4752L4.51373 19.2952C4.45635 19.325 4.39484 19.3461 4.33123 19.3577C3.90373 19.4327 3.49623 19.0402 3.58123 18.5552L4.61873 12.6427L0.216234 8.4477C0.147791 8.38295 0.0933886 8.30482 0.0564034 8.21816C0.0194182 8.13151 0.000639957 8.03817 0.00123439 7.94395C0.0012994 7.81075 0.0380611 7.68014 0.107484 7.56645C0.156733 7.48404 0.223858 7.41374 0.303907 7.36073C0.383956 7.30773 0.474885 7.27337 0.569984 7.26021L6.69248 6.3902ZM9.99998 15.0252C10.1009 15.0248 10.2004 15.0488 10.29 15.0952L14.8975 17.4627L14.03 12.5165C14.0095 12.4027 14.0173 12.2857 14.0526 12.1756C14.0879 12.0655 14.1497 11.9658 14.2325 11.8852L17.8662 8.4227L12.8012 7.70271C12.6964 7.68687 12.5969 7.64584 12.5113 7.58314C12.4258 7.52045 12.3567 7.43794 12.31 7.34271L10.0012 2.77021L9.99998 2.77396V15.024V15.0252Z" fill="url(#paint0_linear_32_88)"/>
</g>
<defs>
<linearGradient id="paint0_linear_32_88" x1="11.0794" y1="-1.52782" x2="9.91349" y2="49.415" gradientUnits="userSpaceOnUse">
<stop stop-color="#2E2594"/>
<stop offset="1" stop-color="#F73B6C"/>
</linearGradient>
<clipPath id="clip0_32_88">
<rect width="20" height="20" fill="white" transform="translate(0 -0.00854492)"/>
</clipPath>
</defs>
</svg>
